<svg width="1400" height="705" viewBox="0 0 1400 705" fill="none" xmlns="http://www.w3.org/2000/svg">
<path d="M1556.44 544.862C1567.53 560.126 1574.8 578.282 1573.33 597.091C1552.22 866.335 1241.03 1080 860.234 1080C481.202 1080 171.129 868.307 147.453 600.824C145.592 579.799 137.274 559.26 122.759 543.936C-201.204 201.9 127.07 176.478 860.234 33.5002C1554 -116.847 1364.45 280.57 1556.44 544.862Z" fill="#4107FC" fill-opacity="0.51"/>
<path d="M1556.44 544.862C1567.53 560.126 1574.8 578.282 1573.33 597.091C1552.22 866.335 1241.03 1080 860.234 1080C481.202 1080 171.129 868.307 147.453 600.824C145.592 579.799 137.274 559.26 122.759 543.936C-201.204 201.9 127.07 176.478 860.234 33.5002C1554 -116.847 1364.45 280.57 1556.44 544.862Z" fill="#B817F6" fill-opacity="0.55"/>
</svg>
