<svg width="433" height="442" viewBox="0 0 433 442" fill="none" xmlns="http://www.w3.org/2000/svg">
<path d="M217.118 32.5221C225.53 55.8906 250.475 68.8841 274.446 62.3828L306.756 53.6195C324.877 48.7047 342.219 63.678 339.998 82.3217C338.121 98.0841 350.432 111.948 366.305 111.948H387.108C427.061 111.948 447.171 160.161 419.06 188.551L416.809 190.825C399.199 208.609 398.91 237.169 416.156 255.306L417.766 256.999C451.423 292.396 417.84 349.783 370.494 337.776L353.199 333.39C348.872 332.293 344.424 331.737 339.959 331.737H314.538C272.248 331.737 233.285 354.674 212.763 391.651L198.622 417.128C192.541 428.085 182.319 436.144 170.246 439.502C140.427 447.794 110.918 425.371 110.918 394.421V353.181C110.918 327.289 93.4254 304.666 68.3667 298.15L27.5978 287.548C-0.872108 280.144 -8.70827 243.438 14.2563 225.054L28.9242 213.312C43.1574 201.918 40.2537 179.493 23.5878 172.1C-0.853386 161.257 7.56052 124.651 34.2829 125.568L73.9305 126.929C91.2678 127.524 105.925 114.202 106.982 96.8868L109.17 61.0704C110.272 43.0449 119.709 26.5617 134.697 16.4866L145.674 9.10693C171.433 -8.20853 206.606 3.31921 217.118 32.5221Z" fill="#CC00FF"/>
</svg>
