<svg width="561" height="378" viewBox="0 0 561 378" fill="none" xmlns="http://www.w3.org/2000/svg">
<path d="M52.9631 46.981C59.1662 42.1151 63.6969 35.4354 65.924 27.8727C74.5867 -1.54458 112.786 -9.02066 131.899 14.9603L146.043 32.7057C158.701 48.5881 179.751 55.1686 199.202 49.3242L224.281 41.7888C254.267 32.779 286.752 42.0899 307.412 65.6156L319.699 79.6056C333.956 95.8405 354.174 105.618 375.753 106.713L484.271 112.222C531.52 114.62 566.378 157.274 559.32 204.054L557.25 217.771C555.44 229.767 550.926 241.193 544.05 251.187L528.63 273.595C511.14 299.011 480.594 312.105 450.126 307.245L391.955 297.968C362.81 293.319 334.373 309.644 323.692 337.157C308.293 376.82 258.681 389.922 225.707 363.034L208.508 349.009C188.187 332.438 160.952 327.065 135.86 334.676L107.638 343.236C46.7794 361.697 -10.2466 305.197 7.64909 244.17L16.4251 214.242C21.9025 195.563 19.513 175.457 9.81002 158.583C-7.87494 127.826 -0.28281 88.7488 27.6319 66.8516L52.9631 46.981Z" fill="#CC00FF"/>
</svg>
