<svg width="60" height="30" viewBox="0 0 60 30" fill="none" xmlns="http://www.w3.org/2000/svg">
<path d="M11.9025 24H8.12658V16.9121H5.2506V24H1.47473V14.1567H11.9025V24ZM13.8232 27.748V14.1475H17.3579V15.604C17.8465 14.9917 18.2949 14.5773 18.7031 14.3608C19.2536 14.0701 19.8628 13.9248 20.5308 13.9248C21.8481 13.9248 22.8656 14.4289 23.583 15.437C24.3066 16.4451 24.6685 17.6914 24.6685 19.1758C24.6685 20.8148 24.2757 22.0672 23.4902 22.9331C22.7048 23.7928 21.7121 24.2227 20.5122 24.2227C19.9308 24.2227 19.3989 24.1237 18.9165 23.9258C18.4403 23.7279 18.0135 23.4341 17.6362 23.0444V27.748H13.8232ZM17.6084 19.1016C17.6084 19.8809 17.7723 20.4591 18.1001 20.8364C18.4279 21.2137 18.8423 21.4023 19.3433 21.4023C19.7824 21.4023 20.1504 21.223 20.4473 20.8643C20.7441 20.4993 20.8926 19.884 20.8926 19.0181C20.8926 18.2202 20.738 17.6357 20.4287 17.2646C20.1195 16.8874 19.7422 16.6987 19.2969 16.6987C18.8145 16.6987 18.4124 16.8874 18.0908 17.2646C17.7692 17.6419 17.6084 18.2542 17.6084 19.1016ZM25.6337 19.1016C25.6337 17.5986 26.1408 16.3617 27.1552 15.3906C28.1695 14.4134 29.5394 13.9248 31.265 13.9248C33.238 13.9248 34.7286 14.4969 35.7367 15.6411C36.5469 16.5627 36.952 17.6976 36.952 19.0459C36.952 20.5612 36.448 21.8044 35.4398 22.7754C34.4379 23.7402 33.0494 24.2227 31.2743 24.2227C29.691 24.2227 28.4107 23.8206 27.4335 23.0166C26.2336 22.0208 25.6337 20.7158 25.6337 19.1016ZM29.4188 19.0923C29.4188 19.9705 29.5951 20.62 29.9476 21.0405C30.3064 21.4611 30.7548 21.6714 31.2929 21.6714C31.8371 21.6714 32.2824 21.4642 32.6288 21.0498C32.9813 20.6354 33.1576 19.9705 33.1576 19.0552C33.1576 18.2017 32.9813 17.5677 32.6288 17.1533C32.2762 16.7327 31.8402 16.5225 31.3207 16.5225C30.7702 16.5225 30.3156 16.7358 29.9569 17.1626C29.5982 17.5832 29.4188 18.2264 29.4188 19.0923Z" fill="url(#paint0_linear_1_9)"/>
<mask id="path-2-outside-1_1_9" maskUnits="userSpaceOnUse" x="38" y="5" width="23" height="19" fill="black">
<rect fill="white" x="38" y="5" width="23" height="19"/>
<path d="M39.1339 21.1719V7.63672C39.1339 6.93359 39.2941 6.40625 39.6144 6.05469C39.9347 5.70312 40.3488 5.52734 40.8566 5.52734C41.38 5.52734 41.8019 5.70312 42.1222 6.05469C42.4503 6.39844 42.6144 6.92578 42.6144 7.63672V21.1719C42.6144 21.8828 42.4503 22.4141 42.1222 22.7656C41.8019 23.1172 41.38 23.293 40.8566 23.293C40.3566 23.293 39.9425 23.1172 39.6144 22.7656C39.2941 22.4062 39.1339 21.875 39.1339 21.1719ZM57.913 8.69141H54.1161V21.1719C54.1161 21.8906 53.9559 22.4258 53.6356 22.7773C53.3153 23.1211 52.9012 23.293 52.3934 23.293C51.8778 23.293 51.4559 23.1172 51.1278 22.7656C50.8075 22.4141 50.6473 21.8828 50.6473 21.1719V8.69141H46.8505C46.2567 8.69141 45.8153 8.5625 45.5262 8.30469C45.2372 8.03906 45.0927 7.69141 45.0927 7.26172C45.0927 6.81641 45.2411 6.46484 45.538 6.20703C45.8427 5.94922 46.2802 5.82031 46.8505 5.82031H57.913C58.5145 5.82031 58.9598 5.95312 59.2489 6.21875C59.5458 6.48438 59.6942 6.83203 59.6942 7.26172C59.6942 7.69141 59.5458 8.03906 59.2489 8.30469C58.952 8.5625 58.5067 8.69141 57.913 8.69141Z"/>
</mask>
<path d="M42.1222 6.05469L41.7525 6.39152L41.7605 6.39993L42.1222 6.05469ZM42.1222 22.7656L41.7566 22.4244L41.7526 22.4289L42.1222 22.7656ZM39.6144 22.7656L39.241 23.0984L39.2488 23.1068L39.6144 22.7656ZM39.6339 21.1719V7.63672H38.6339V21.1719H39.6339ZM39.6339 7.63672C39.6339 6.99974 39.78 6.61532 39.984 6.39143L39.2448 5.71794C38.8081 6.19718 38.6339 6.86744 38.6339 7.63672H39.6339ZM39.984 6.39143C40.2026 6.15153 40.4787 6.02734 40.8566 6.02734V5.02734C40.2188 5.02734 39.6668 5.25472 39.2448 5.71794L39.984 6.39143ZM40.8566 6.02734C41.2551 6.02734 41.5372 6.15498 41.7526 6.39143L42.4918 5.71794C42.0666 5.25127 41.5049 5.02734 40.8566 5.02734V6.02734ZM41.7605 6.39993C41.9644 6.61352 42.1144 6.99171 42.1144 7.63672H43.1144C43.1144 6.85985 42.9362 6.18335 42.4839 5.70945L41.7605 6.39993ZM42.1144 7.63672V21.1719H43.1144V7.63672H42.1144ZM42.1144 21.1719C42.1144 21.8158 41.9649 22.2014 41.7567 22.4245L42.4877 23.1068C42.9358 22.6267 43.1144 21.9499 43.1144 21.1719H42.1144ZM41.7526 22.4289C41.5372 22.6653 41.2551 22.793 40.8566 22.793V23.793C41.5049 23.793 42.0666 23.569 42.4918 23.1024L41.7526 22.4289ZM40.8566 22.793C40.4889 22.793 40.2093 22.6703 39.9799 22.4245L39.2488 23.1068C39.6757 23.5641 40.2242 23.793 40.8566 23.793V22.793ZM39.9876 22.4329C39.7796 22.1995 39.6339 21.8078 39.6339 21.1719H38.6339C38.6339 21.9422 38.8086 22.613 39.2411 23.0983L39.9876 22.4329ZM54.1161 8.69141V8.19141H53.6161V8.69141H54.1161ZM53.6356 22.7773L54.0015 23.1182L54.0052 23.1141L53.6356 22.7773ZM51.1278 22.7656L50.7582 23.1024L50.7623 23.1068L51.1278 22.7656ZM50.6473 8.69141H51.1473V8.19141H50.6473V8.69141ZM45.5262 8.30469L45.1879 8.67289L45.1934 8.67784L45.5262 8.30469ZM45.538 6.20703L45.215 5.82531L45.2101 5.82951L45.538 6.20703ZM59.2489 6.21875L58.9106 6.58695L58.9155 6.59137L59.2489 6.21875ZM59.2489 8.30469L59.5768 8.68225L59.5823 8.67731L59.2489 8.30469ZM57.913 8.19141H54.1161V9.19141H57.913V8.19141ZM53.6161 8.69141V21.1719H54.6161V8.69141H53.6161ZM53.6161 21.1719C53.6161 21.8279 53.4684 22.2184 53.266 22.4406L54.0052 23.1141C54.4434 22.6331 54.6161 21.9533 54.6161 21.1719H53.6161ZM53.2698 22.4365C53.0523 22.6699 52.775 22.793 52.3934 22.793V23.793C53.0275 23.793 53.5783 23.5723 54.0014 23.1182L53.2698 22.4365ZM52.3934 22.793C52.0052 22.793 51.7195 22.6668 51.4933 22.4245L50.7623 23.1068C51.1924 23.5676 51.7504 23.793 52.3934 23.793V22.793ZM51.4974 22.4289C51.2942 22.2059 51.1473 21.8184 51.1473 21.1719H50.1473C50.1473 21.9472 50.3208 22.6223 50.7582 23.1024L51.4974 22.4289ZM51.1473 21.1719V8.69141H50.1473V21.1719H51.1473ZM50.6473 8.19141H46.8505V9.19141H50.6473V8.19141ZM46.8505 8.19141C46.3164 8.19141 46.0184 8.07368 45.8591 7.93154L45.1934 8.67784C45.6122 9.05132 46.197 9.19141 46.8505 9.19141V8.19141ZM45.8646 7.93652C45.6889 7.77513 45.5927 7.56622 45.5927 7.26172H44.5927C44.5927 7.81659 44.7854 8.30299 45.1879 8.67285L45.8646 7.93652ZM45.5927 7.26172C45.5927 6.93983 45.6935 6.73421 45.8658 6.58455L45.2101 5.82951C44.7887 6.19548 44.5927 6.69298 44.5927 7.26172H45.5927ZM45.8609 6.58872C46.0434 6.43429 46.3485 6.32031 46.8505 6.32031V5.32031C46.2118 5.32031 45.6419 5.46414 45.215 5.82534L45.8609 6.58872ZM46.8505 6.32031H57.913V5.32031H46.8505V6.32031ZM57.913 6.32031C58.4538 6.32031 58.7523 6.44145 58.9106 6.58691L59.5872 5.85059C59.1674 5.4648 58.5753 5.32031 57.913 5.32031V6.32031ZM58.9155 6.59137C59.0973 6.75406 59.1942 6.9617 59.1942 7.26172H60.1942C60.1942 6.70236 59.9942 6.21469 59.5823 5.84613L58.9155 6.59137ZM59.1942 7.26172C59.1942 7.56174 59.0973 7.76937 58.9155 7.93207L59.5823 8.67731C59.9942 8.30875 60.1942 7.82107 60.1942 7.26172H59.1942ZM58.9211 7.92717C58.7517 8.07425 58.4456 8.19141 57.913 8.19141V9.19141C58.5678 9.19141 59.1524 9.05075 59.5767 8.6822L58.9211 7.92717Z" fill="black" mask="url(#path-2-outside-1_1_9)"/>
<path d="M5.3676 10.318L5.1916 10.527V5.225H5.9726V10.527L5.7636 10.318H8.9866L8.7776 10.527V5.225H9.5586V11H1.5726V5.225H2.3536V10.527L2.1556 10.318H5.3676ZM15.3527 11L12.9767 8.14L13.6257 7.755L16.2767 11H15.3527ZM11.1177 11V5.225H11.8987V11H11.1177ZM11.6567 8.426V7.755H13.5157V8.426H11.6567ZM13.6917 8.195L12.9657 8.085L15.2647 5.225H16.1117L13.6917 8.195ZM19.0212 11.055C18.4638 11.055 17.9615 10.9303 17.5142 10.681C17.0742 10.4243 16.7258 10.076 16.4692 9.636C16.2125 9.18867 16.0842 8.679 16.0842 8.107C16.0842 7.52767 16.2125 7.018 16.4692 6.578C16.7258 6.138 17.0742 5.79333 17.5142 5.544C17.9542 5.29467 18.4565 5.17 19.0212 5.17C19.5932 5.17 20.0992 5.29467 20.5392 5.544C20.9865 5.79333 21.3348 6.138 21.5842 6.578C21.8408 7.018 21.9692 7.52767 21.9692 8.107C21.9692 8.679 21.8408 9.18867 21.5842 9.636C21.3348 10.076 20.9865 10.4243 20.5392 10.681C20.0918 10.9303 19.5858 11.055 19.0212 11.055ZM19.0212 10.362C19.4392 10.362 19.8095 10.2703 20.1322 10.087C20.4548 9.89633 20.7078 9.63233 20.8912 9.295C21.0818 8.95033 21.1772 8.55433 21.1772 8.107C21.1772 7.65233 21.0818 7.25633 20.8912 6.919C20.7078 6.58167 20.4548 6.32133 20.1322 6.138C19.8095 5.94733 19.4428 5.852 19.0322 5.852C18.6215 5.852 18.2548 5.94733 17.9322 6.138C17.6095 6.32133 17.3528 6.58167 17.1622 6.919C16.9715 7.25633 16.8762 7.65233 16.8762 8.107C16.8762 8.55433 16.9715 8.95033 17.1622 9.295C17.3528 9.63233 17.6095 9.89633 17.9322 10.087C18.2548 10.2703 18.6178 10.362 19.0212 10.362ZM21.8901 10.989L21.9451 10.318C21.9965 10.3253 22.0441 10.3363 22.0881 10.351C22.1395 10.3583 22.1835 10.362 22.2201 10.362C22.4548 10.362 22.6418 10.274 22.7811 10.098C22.9278 9.922 23.0378 9.68733 23.1111 9.394C23.1845 9.10067 23.2358 8.77067 23.2651 8.404C23.2945 8.03 23.3201 7.656 23.3421 7.282L23.4411 5.225H27.6761V11H26.8951V5.676L27.0931 5.907H23.9471L24.1341 5.665L24.0461 7.337C24.0241 7.83567 23.9838 8.31233 23.9251 8.767C23.8738 9.22167 23.7895 9.62133 23.6721 9.966C23.5621 10.3107 23.4081 10.582 23.2101 10.78C23.0121 10.9707 22.7591 11.066 22.4511 11.066C22.3631 11.066 22.2715 11.0587 22.1761 11.044C22.0881 11.0293 21.9928 11.011 21.8901 10.989ZM32.8223 11V9.724L32.7893 9.515V7.381C32.7893 6.88967 32.65 6.512 32.3713 6.248C32.1 5.984 31.693 5.852 31.1503 5.852C30.7763 5.852 30.4206 5.91433 30.0833 6.039C29.746 6.16367 29.46 6.32867 29.2253 6.534L28.8733 5.951C29.1666 5.70167 29.5186 5.511 29.9293 5.379C30.34 5.23967 30.7726 5.17 31.2273 5.17C31.9753 5.17 32.551 5.357 32.9543 5.731C33.365 6.09767 33.5703 6.65867 33.5703 7.414V11H32.8223ZM30.8313 11.055C30.3986 11.055 30.021 10.9853 29.6983 10.846C29.383 10.6993 29.141 10.5013 28.9723 10.252C28.8036 9.99533 28.7193 9.702 28.7193 9.372C28.7193 9.07133 28.789 8.8 28.9283 8.558C29.075 8.30867 29.3096 8.11067 29.6323 7.964C29.9623 7.81 30.4023 7.733 30.9523 7.733H32.9433V8.316H30.9743C30.417 8.316 30.0283 8.415 29.8083 8.613C29.5956 8.811 29.4893 9.05667 29.4893 9.35C29.4893 9.68 29.6176 9.944 29.8743 10.142C30.131 10.34 30.4903 10.439 30.9523 10.439C31.3923 10.439 31.77 10.34 32.0853 10.142C32.408 9.93667 32.6426 9.64333 32.7893 9.262L32.9653 9.801C32.8186 10.1823 32.562 10.4867 32.1953 10.714C31.836 10.9413 31.3813 11.055 30.8313 11.055Z" fill="black"/>
<defs>
<linearGradient id="paint0_linear_1_9" x1="0" y1="3" x2="25.4965" y2="38.884" gradientUnits="userSpaceOnUse">
<stop stop-color="#1400FF"/>
<stop offset="0.489583" stop-color="#AF1AF4"/>
<stop offset="0.984375" stop-color="#F900FE"/>
</linearGradient>
</defs>
</svg>
