<svg width="21" height="21" viewBox="0 0 21 21" fill="none" xmlns="http://www.w3.org/2000/svg">
<g clip-path="url(#clip0_1158_41)">
<path d="M10.5 0.5C7.84844 0.5 5.30312 1.55422 3.42969 3.42891C1.55433 5.30435 0.500537 7.84779 0.5 10.5C0.5 13.1511 1.55469 15.6964 3.42969 17.5711C5.30312 19.4458 7.84844 20.5 10.5 20.5C13.1516 20.5 15.6969 19.4458 17.5703 17.5711C19.4453 15.6964 20.5 13.1511 20.5 10.5C20.5 7.84891 19.4453 5.30359 17.5703 3.42891C15.6969 1.55422 13.1516 0.5 10.5 0.5Z" fill="url(#paint0_linear_1158_41)"/>
<path d="M5.0267 10.3945C7.94232 9.12453 9.88607 8.28724 10.8579 7.88266C13.6361 6.7275 14.2126 6.52688 14.5892 6.52008C14.672 6.51875 14.8564 6.53922 14.9767 6.63648C15.0767 6.71852 15.1048 6.82945 15.1189 6.90734C15.1314 6.98516 15.1486 7.1625 15.1345 7.30094C14.9845 8.88219 14.3329 12.7194 14.0017 14.4905C13.8626 15.2398 13.5861 15.4911 13.3189 15.5156C12.7376 15.5691 12.297 15.1319 11.7345 14.7633C10.8548 14.1862 10.3579 13.8272 9.50326 13.2642C8.51576 12.6136 9.15639 12.2559 9.71889 11.6716C9.86576 11.5186 12.4251 9.19125 12.4736 8.98016C12.4798 8.95375 12.4861 8.85531 12.4267 8.80344C12.3689 8.75141 12.2829 8.76922 12.2204 8.78328C12.1314 8.80328 10.7267 9.73266 8.0017 11.5713C7.60326 11.8453 7.24232 11.9789 6.91732 11.9719C6.56107 11.9642 5.87357 11.77 5.36264 11.6041C4.73764 11.4005 4.2392 11.2928 4.28295 10.947C4.30482 10.767 4.55326 10.5828 5.0267 10.3945Z" fill="white"/>
</g>
<defs>
<linearGradient id="paint0_linear_1158_41" x1="1000.5" y1="0.5" x2="1000.5" y2="2000.5" gradientUnits="userSpaceOnUse">
<stop stop-color="#2AABEE"/>
<stop offset="1" stop-color="#229ED9"/>
</linearGradient>
<clipPath id="clip0_1158_41">
<rect width="20" height="20" fill="white" transform="translate(0.5 0.5)"/>
</clipPath>
</defs>
</svg>
