<svg width="21" height="21" viewBox="0 0 21 21" fill="none" xmlns="http://www.w3.org/2000/svg">
<path d="M13.573 0.5H7.438C1.832 0.5 0.5 1.833 0.5 7.427V13.563C0.5 19.167 1.823 20.5 7.427 20.5H13.563C19.167 20.5 20.5 19.177 20.5 13.573V7.438C20.5 1.832 19.177 0.5 13.573 0.5ZM16.646 14.77H15.187C14.635 14.77 14.469 14.323 13.479 13.333C12.615 12.5 12.25 12.396 12.031 12.396C11.729 12.396 11.646 12.479 11.646 12.896V14.208C11.646 14.563 11.531 14.771 10.604 14.771C9.7045 14.7099 8.83233 14.4363 8.0591 13.9727C7.28588 13.5091 6.63366 12.8686 6.156 12.104C5.02235 10.6945 4.23403 9.03944 3.854 7.271C3.854 7.052 3.937 6.854 4.354 6.854H5.813C6.188 6.854 6.323 7.021 6.469 7.406C7.177 9.49 8.385 11.302 8.875 11.302C9.063 11.302 9.145 11.219 9.145 10.75V8.604C9.083 7.625 8.563 7.542 8.563 7.188C8.56968 7.09463 8.61247 7.00753 8.68229 6.94518C8.75211 6.88283 8.84347 6.85012 8.937 6.854H11.229C11.542 6.854 11.646 7.01 11.646 7.385V10.281C11.646 10.594 11.781 10.698 11.875 10.698C12.063 10.698 12.208 10.594 12.552 10.25C13.2909 9.34894 13.8945 8.34507 14.344 7.27C14.3902 7.14105 14.4772 7.03068 14.5918 6.95562C14.7064 6.88055 14.8423 6.84488 14.979 6.854H16.438C16.875 6.854 16.968 7.073 16.875 7.385C16.3445 8.57345 15.6881 9.70157 14.917 10.75C14.76 10.99 14.697 11.115 14.917 11.396C15.062 11.615 15.573 12.042 15.917 12.448C16.4167 12.9468 16.8318 13.5237 17.146 14.156C17.271 14.562 17.062 14.77 16.646 14.77Z" fill="#1557FF"/>
</svg>
